<svg xmlns="http://www.w3.org/2000/svg" width="48" height="48" viewBox="0 0 48 48">
    <path fill="#000" fill-rule="nonzero" d="M23.98 18.974c-3.47 0-6.327 2.862-6.327 6.43 0 3.567 2.857 6.387 6.326 6.387 3.47 0 6.327-2.862 6.327-6.429s-2.816-6.388-6.327-6.388zm15.428-9.291H34.51l-1.102-3.028C32.836 5.203 31.122 4 29.612 4H18.388c-1.551 0-3.225 1.203-3.796 2.655L13.49 9.683H8.592C5.49 9.683 3 12.254 3 15.365v19.952C3 38.47 5.53 41 8.592 41h30.816C42.51 41 45 38.428 45 35.317v-19.91c.04-3.153-2.49-5.724-5.592-5.724zM23.979 35.359c-5.428 0-9.795-4.48-9.795-9.955 0-5.476 4.408-9.956 9.795-9.956 5.429 0 9.796 4.48 9.796 9.956 0 5.475-4.367 9.955-9.796 9.955z"/>
</svg>
