<?xml version="1.0" encoding="UTF-8"?>
<svg width="48px" height="48px" viewBox="0 0 48 48" version="1.1" xmlns="http://www.w3.org/2000/svg" xmlns:xlink="http://www.w3.org/1999/xlink">
    <!-- Generator: Sketch 48.2 (47327) - http://www.bohemiancoding.com/sketch -->
    <title>aws icons 48</title>
    <desc>Created with Sketch.</desc>
    <defs></defs>
    <g id="Symbols" stroke="none" stroke-width="1" fill="none" fill-rule="evenodd">
        <g id="aws-icons-48">
            <g id="Group-25" transform="translate(5.000000, 0.000000)">
                <polygon id="Combined-Shape" fill="#F58536" points="7 37.3928383 2 39.0509949 2 8.95509338 7 10.6116478 7 6.33401097 12 8.37330633 12 3.71051025 19 6.88733981 19 0 38 10 38 38 19 48 19 41.1327825 12 44.3213501 12 39.63377 7 41.6755926"></polygon>
                <path d="M19,0 L19,48 L15,45.8947368 L15,2.10526316 L19,0 Z M12,3.68421053 L12,44.3157895 L9,42.7368421 L9,5.26315789 L12,3.68421053 Z M7,6.31578947 L7,41.6842105 L4,40.1052632 L4,7.89473684 L7,6.31578947 Z M2,8.94736842 L2,39.0526316 L0,38 L0,10 L2,8.94736842 Z" id="Combined-Shape" fill="#9D5025"></path>
            </g>
        </g>
    </g>
</svg>