<svg xmlns="http://www.w3.org/2000/svg" width="48" height="48" viewBox="0 0 48 48">
    <g fill="none" fill-rule="evenodd">
        <path fill="#4285F4" d="M42.836 20.585H24.488v7.805h10.244c-.464 2.5-1.841 4.328-3.96 5.746v5.019h6.464c3.782-3.482 5.964-8.61 5.964-14.7 0-1.419-.127-2.782-.364-3.87z"/>
        <path fill="#34A853" d="M24 44c5.4 0 9.927-1.79 13.236-4.845l-6.463-5.019c-1.791 1.2-4.082 1.91-6.773 1.91-5.21 0-9.618-3.519-11.19-8.246H6.126v5.182C9.418 39.518 16.182 44 24 44z"/>
        <path fill="#FBBC05" d="M12.81 27.8c-.4-1.2-.628-2.482-.628-3.8 0-1.318.227-2.6.627-3.8v-5.182H6.127A19.992 19.992 0 0 0 4 24c0 3.227.773 6.282 2.127 8.982L12.81 27.8z"/>
        <path fill="#EA4335" d="M24 11.955c2.936 0 5.573 1.009 7.645 2.99l5.737-5.736C33.918 5.982 29.39 4 24 4 16.182 4 9.418 8.482 6.127 15.018L12.81 20.2c1.573-4.727 5.982-8.245 11.191-8.245z"/>
    </g>
</svg>
