<?xml version="1.0" encoding="UTF-8"?>
<svg width="48px" height="48px" viewBox="0 0 48 48" version="1.1" xmlns="http://www.w3.org/2000/svg" xmlns:xlink="http://www.w3.org/1999/xlink">
    <!-- Generator: Sketch 48.2 (47327) - http://www.bohemiancoding.com/sketch -->
    <title>azure icons 48</title>
    <desc>Created with Sketch.</desc>
    <defs></defs>
    <g id="Symbols" stroke="none" stroke-width="1" fill="none" fill-rule="evenodd">
        <g id="azure-icons-48" fill="#0078D7" fill-rule="nonzero">
            <path d="M28.3393214,25.510978 C30.00998,25.510978 31.3712575,26.8722555 31.4331337,28.5429142 C31.4331337,30.2135729 30.0718563,31.5748503 28.4011976,31.5748503 C27.1636727,31.5748503 26.1117764,30.8323353 25.6167665,29.7804391 L7.85828343,29.7804391 C3.52694611,29.7804391 0,26.253493 0,21.9221557 C0,17.5908184 3.52694611,14.0638723 7.85828343,14.001996 L8.53892216,14.001996 C8.53892216,14.0638723 8.53892216,14.0638723 8.53892216,14.0638723 C8.53892216,14.001996 8.53892216,14.001996 8.53892216,14.001996 C9.96207585,10.4750499 13.4271457,8 17.4491018,8 C20.9141717,8 23.8842315,9.79441118 25.6167665,12.5169661 C24.8123752,12.7025948 24.007984,12.9500998 23.2654691,13.3213573 C21.9660679,11.5888224 19.8622754,10.4131737 17.4491018,10.4131737 C14.7884232,10.4131737 12.4371257,11.8363273 11.1996008,14.001996 C11.0758483,14.1876248 11.0139721,14.4351297 10.8902196,14.6207585 C10.6427146,15.1776447 10.4570858,15.7964072 10.3333333,16.4151697 L7.92015968,16.4151697 L7.85828343,16.4151697 C4.82634731,16.4151697 2.41317365,18.8283433 2.41317365,21.8602794 C2.41317365,24.8922156 4.88822355,27.3053892 7.85828343,27.3053892 L25.5548902,27.3053892 C26.0499002,26.253493 27.1017964,25.510978 28.3393214,25.510978 Z M37.744511,39 L18.3153693,39 C14.0459082,39 10.7664671,35.6586826 10.2095808,31.5748503 L24.6267465,31.5748503 C25.5548902,32.6886228 26.8542914,33.3692615 28.4011976,33.3692615 C31.0618762,33.3692615 33.2275449,31.2035928 33.2275449,28.5429142 C33.2275449,25.8822355 31.0618762,23.7165669 28.4011976,23.7165669 C26.8542914,23.7165669 25.493014,24.3972056 24.6267465,25.510978 L11.6946108,25.510978 C13.0558882,23.5928144 15.2215569,22.2315369 17.758483,21.9840319 C18.8103792,17.1576846 23.1417166,13.506986 28.3393214,13.506986 C32.6087824,13.506986 36.259481,15.9201597 38.0538922,19.508982 C43.3752495,19.5708583 47.6447106,23.8403194 47.6447106,29.1616766 C47.6447106,34.4830339 43.0658683,39 37.744511,39 Z" id="Combined-Shape"></path>
        </g>
    </g>
</svg>