<?xml version="1.0" encoding="UTF-8"?>
<svg width="48px" height="48px" viewBox="0 0 48 48" version="1.1" xmlns="http://www.w3.org/2000/svg" xmlns:xlink="http://www.w3.org/1999/xlink">
    <g stroke="none" stroke-width="1" fill="none" fill-rule="evenodd">
        <path d="M45.6722889,31.1981253 C51.2163227,7.43798032 31.2406886,8.0428586 29.1722889,7.69812531 C26.5561669,7.26210497 25.4609548,4.54471755 25.5550786,1.86698669 C25.5810164,1.12907965 25.1966639,0.821418871 24.4722571,1.02563376 C4.70867507,6.5971136 -2.29843859,17.5946725 3.50265925,34.0037238 C11.1722889,55.6981253 42.1722889,46.1981253 45.6722889,31.1981253 Z" id="Shape" fill="#5B00FF" fill-rule="nonzero" transform="translate(24.086144, 23.849063) scale(-1, -1) translate(-24.086144, -23.849063) "></path>
        <g stroke-width="1" fill-rule="evenodd" transform="translate(18.000000, 14.000000)" fill="#FFFFFF">
            <path d="M3.91437618,10.7861092 C3.79441473,12.4279994 3.72460866,13.4873551 3.64645723,14.8626885 C3.59945882,15.6897814 2.89086781,16.3221729 2.06377492,16.2751745 C1.23668203,16.2281761 0.604290508,15.5195851 0.651288923,14.6924922 C0.754207844,12.8812927 0.842681768,11.6133457 1.04592588,8.90168194 C1.24789247,6.20706281 1.33539434,4.95304665 1.43700321,3.16490184 C1.52991645,1.52978545 2.12664918,1.22051648 2.7923237,1.05343337 C8.96103218,-0.494901432 13.3740969,1.81934446 13.0760286,5.96257527 C12.9345484,7.92918883 11.7544483,9.47657418 9.94179136,10.3320159 C10.1639213,10.6985171 10.4099714,11.1200677 10.7108981,11.6434394 C11.4907795,12.9998089 11.8588607,13.5962439 12.4217995,14.3601065 C12.9132741,15.0269979 12.7710707,15.9660391 12.1041792,16.4575138 C11.4372878,16.9489884 10.4982466,16.806785 10.0067719,16.1398935 C9.35671542,15.2578192 8.94421621,14.5894098 8.11015341,13.1388079 C7.55394458,12.1714495 7.2071977,11.5906316 6.84983725,11.0599374 C5.93006296,11.1021449 4.94332933,11.0164073 3.91437618,10.7861092 Z M4.13965288,7.75273131 C7.65201766,8.71736483 9.95734606,7.50452306 10.0837619,5.74730851 C10.1989007,4.14684727 8.25739863,3.01442086 4.40739508,3.76528828 C4.33299996,5.03881608 4.26074924,6.10660225 4.13965288,7.75273131 Z" id="Combined-Shape" fill-rule="nonzero"></path>
        </g>
    </g>
</svg>