<svg xmlns="http://www.w3.org/2000/svg" width="48" height="48" viewBox="0 0 48 48">
    <g fill="none" fill-rule="nonzero">
        <path fill="#EF3F36" d="M23.967 4.005s11.769-.526 18.008 11.258h-19.01s-3.587-.115-6.651 4.22c-.88 1.82-1.827 3.694-.765 7.388-1.53-2.582-8.121-14.014-8.121-14.014s4.649-8.386 16.539-8.852z"/>
        <path fill="#FCD900" d="M41.365 33.919s-5.431 10.419-18.79 9.903l9.508-16.398s1.898-3.036-.342-7.848c-1.139-1.672-2.3-3.42-6.04-4.352 3.009-.027 16.241 0 16.241 0s4.958 8.205-.577 18.695z"/>
        <path fill="#61BC5B" d="M6.652 34.001s-6.344-9.893.787-21.16a43597.6 43597.6 0 0 0 9.502 16.397s1.694 3.157 6.993 3.628c2.02-.147 4.121-.273 6.806-3.03-1.48 2.609-8.121 14.008-8.121 14.008S13 44.02 6.652 34.001z"/>
        <path fill="#FFF" d="M15.01 24.087c0-4.9 3.989-8.874 8.908-8.874 4.918 0 8.907 3.974 8.907 8.874s-3.989 8.873-8.908 8.873c-4.918-.006-8.907-3.974-8.907-8.873z"/>
        <path fill="#5B8CEE" d="M16.5 24.087c0-4.078 3.318-7.388 7.418-7.388 4.093 0 7.416 3.305 7.416 7.388 0 4.077-3.317 7.388-7.416 7.388-4.094 0-7.417-3.31-7.417-7.388z"/>
    </g>
</svg>
