<svg xmlns="http://www.w3.org/2000/svg" width="48" height="48" viewBox="0 0 48 48">
    <g fill="none" fill-rule="evenodd">
        <path d="M0 0h48v48H0z"/>
        <g fill-rule="nonzero">
            <path fill="#ECB32D" d="M31.012 4.963A4.01 4.01 0 0 0 26 2.403a4.01 4.01 0 0 0-2.561 5.012l10.28 31.61c.696 1.938 2.818 3.036 4.83 2.45 2.122-.621 3.402-2.853 2.707-4.902 0-.073-10.244-31.61-10.244-31.61z"/>
            <path fill="#63C1A0" d="M15.098 10.122a4.01 4.01 0 0 0-5.013-2.561 4.01 4.01 0 0 0-2.56 5.012l10.28 31.61c.695 1.939 2.817 3.037 4.83 2.451 2.121-.622 3.402-2.854 2.706-4.902 0-.073-10.243-31.61-10.243-31.61z"/>
            <path fill="#E01A59" d="M43.963 31.122a4.01 4.01 0 0 0 2.561-5.012 4.01 4.01 0 0 0-5.012-2.561L9.866 33.866c-1.94.695-3.037 2.817-2.451 4.83.622 2.121 2.853 3.402 4.902 2.706.073 0 31.646-10.28 31.646-10.28z"/>
            <path fill="#331433" d="M16.451 40.085c2.049-.658 4.72-1.536 7.573-2.45-.658-2.05-1.536-4.72-2.45-7.574L14 32.512l2.451 7.573z"/>
            <path fill="#D62027" d="M32.402 34.89c2.854-.914 5.525-1.792 7.574-2.451-.659-2.049-1.537-4.72-2.452-7.573l-7.573 2.451 2.451 7.573z"/>
            <path fill="#89D3DF" d="M38.768 15.207a4.01 4.01 0 0 0 2.561-5.012 4.01 4.01 0 0 0-5.012-2.56l-31.61 10.28c-1.939.695-3.036 2.817-2.45 4.829.621 2.122 2.853 3.402 4.902 2.707.073 0 31.61-10.244 31.61-10.244z"/>
            <path fill="#258B74" d="M11.293 24.134c2.048-.658 4.72-1.536 7.573-2.451-.915-2.854-1.793-5.524-2.451-7.573L8.84 16.56l2.452 7.573z"/>
            <path fill="#819C3C" d="M27.207 18.976c2.854-.915 5.525-1.793 7.573-2.452-.914-2.853-1.792-5.524-2.45-7.573l-7.574 2.451 2.451 7.574z"/>
        </g>
    </g>
</svg>
