<?xml version="1.0" encoding="UTF-8"?>
<svg width="48px" height="48px" viewBox="0 0 48 48" version="1.1" xmlns="http://www.w3.org/2000/svg" xmlns:xlink="http://www.w3.org/1999/xlink">
    <!-- Generator: Sketch 48.2 (47327) - http://www.bohemiancoding.com/sketch -->
    <title>cisco icons 48</title>
    <desc>Created with Sketch.</desc>
    <defs></defs>
    <g id="Symbols" stroke="none" stroke-width="1" fill="none" fill-rule="evenodd">
        <g id="cisco-icons-48" fill="#0075A5">
            <g id="Group-24" transform="translate(0.000000, 7.000000)">
                <path d="M48,11 C48,16.1544526 37.254452,20.331764 24.0032626,20.331764 C10.746853,20.331764 0,16.1544526 0,11 L0,24.668236 C0,29.821384 10.746853,34 24.0032626,34 C37.254452,34 48,29.821384 48,24.668236 L48,11" id="Fill-1"></path>
                <path d="M24.0032626,18.6683342 C10.746853,18.6683342 0,14.489655 0,9.33351459 C0,4.17867921 10.746853,0 24.0032626,0 C37.254452,0 48,4.17867921 48,9.33351459 C48,14.489655 37.254452,18.6683342 24.0032626,18.6683342 Z M18.5221718,5.68336913 L17.146679,6.76131698 L5.97047389,4.86773062 L3.06549577,7.04711672 L14.6475626,9.02552949 L13.0097605,10.3892771 L20.5031946,8.65751339 L18.5221718,5.68336913 Z M29.0628314,12.8936136 L30.6601778,11.5129007 L41.8598733,13.6152905 L44.5625731,11.4515647 L33.2963215,9.52926783 L34.4682309,8.47872543 L27.7095239,9.8294228 L29.0628314,12.8936136 Z M25.3709252,4.06122726 L27.7264892,4.42532829 L23.9171311,7.42426796 L27.4419945,7.93714146 L31.1352057,4.87295071 L33.026182,5.23313667 L32.9361355,1.98885294 L25.3709252,4.06122726 Z M22.1253365,15.6889698 L19.9629156,15.0573394 L24.1990158,11.3615182 L20.6872026,10.7677333 L16.7186319,14.1555695 L14.6462576,13.705337 L14.9163971,17.0396672 L22.1253365,15.6889698 Z" id="Combined-Shape"></path>
            </g>
        </g>
    </g>
</svg>