<svg xmlns="http://www.w3.org/2000/svg" width="48" height="48" viewBox="0 0 48 48">
    <g fill="none" fill-rule="nonzero">
        <path fill="#000" d="M15 23.866V41h12c6.627 0 12-5.373 12-12 0-3.518-.658-6.163-1.874-8H21.45l2.35-7.047a7.418 7.418 0 0 0-1.165-6.883L15 23.866zM27 17H37.126a4 4 0 0 1 3.335 1.792C42.154 21.348 43 24.75 43 29c0 8.837-7.163 16-16 16H12a1 1 0 0 1-1-1V23.433a2 2 0 0 1 .18-.827L21 1c4.897 1.959 7.722 6.95 7.097 12-.065.667-.43 2-1.097 4z"/>
        <path fill="#2B79FF" d="M6 21h2a1 1 0 0 1 1 1v22a1 1 0 0 1-1 1H6a1 1 0 0 1-1-1V22a1 1 0 0 1 1-1z"/>
    </g>
</svg>
