<?xml version="1.0" encoding="UTF-8"?>
<svg width="48px" height="48px" viewBox="0 0 48 48" version="1.1" xmlns="http://www.w3.org/2000/svg">
    <g stroke="none" stroke-width="1" fill="none" fill-rule="evenodd">
        <g stroke-width="4">
            <g>
                <g transform="translate(6.000000, 0.000000)">
                    <path d="M16.9508402,2.74136985 L8,22.4332184 L8,42 L22,42 C29.7319865,42 36,35.7319865 36,28 C36,24.1163325 35.2480077,21.092748 33.7935116,18.8958972 C33.4231055,18.3364437 32.7968489,18 32.1258877,18 L19.2251482,18 L20.6967561,13.5851763 C22.0686921,9.46936836 20.4439994,5.04395344 16.9508402,2.74136985 Z"
                          stroke="#000000" fill-rule="nonzero"></path>
                    <path d="M2,32 L2,21.5 L2,32 Z M1,22 L2,22 L2,21.5 L2,32 L2,22 Z M2,43 C2,42.4477153 2.44771525,42 3,42 L2,42 L2,32 L2,42.5 L2,42 L1,42 C1.55228475,42 2,42.4477153 2,43 Z"
                          stroke="#2B79FF"></path>
                </g>
            </g>
        </g>
    </g>
</svg>