<svg xmlns="http://www.w3.org/2000/svg" width="48" height="48" viewBox="0 0 48 48">
    <path fill="#000" fill-rule="nonzero" d="M33.96 14.756c-2.042 0-3.632.544-4.488 1.775C28.792 14 28 12 25.737 10.203 28.186 8.757 31.364 8 35.002 8c4.37 0 7.608 1 9.582 2.8 2.085 1.889 2.817 4.067 2.817 7.956v16.022c0 1.578.111 3.089.599 4.6h-8.628c-.222-1-.378-2.356-.422-3.645-2.462 3.045-4.946 4.245-9.405 4.245-3.837.022-9.405-2.511-9.538-8.69-.177-8.821 8.873-10.621 18.5-11.088l-.023-.978c-.044-2.022-1.042-4.466-4.525-4.466zm3.349 16.866c1.175-1.778 1.22-3.155 1.197-5.733V24.71c-4.436.267-10.225 1.667-10.225 5.645 0 2.688 2.063 3.822 4.547 3.822 1.819 0 3.46-.978 4.48-2.556zM21.86 38.44C19.634 39.533 17.11 40 14.817 40 5.501 40 0 33.4 0 24.311 0 14.844 5.678 8 15.372 8c7.031 0 12.798 3.733 13.42 11.044H20.34c0-2.777-1.952-4.266-4.68-4.266-4.37 0-5.723 3.089-5.723 8.778 0 5.777 1.264 9.155 5.745 9.155 1.277.017 2.383-.32 3.19-1.019C19 34.5 20.5 37.5 21.862 38.44z"/>
</svg>