<svg xmlns="http://www.w3.org/2000/svg" width="48" height="48" viewBox="0 0 48 48">
    <path fill="#AA0707" fill-rule="nonzero" d="M41.183 12.885A16.39 16.39 0 0 0 29.535 8.08a16.5 16.5 0 0 0-10.568 3.823l-1.073.896a14.185 14.185 0 0 0-1.744-.107h-.103l-.055.002a14.086 14.086 0 0 0-9.85 4.134A13.968 13.968 0 0 0 2 26.79c0 3.762 1.472 7.3 4.143 9.963a14.08 14.08 0 0 0 10.007 4.133h12.334c.348.022.7.033 1.051.033h.045l.258-.007a16.857 16.857 0 0 0 3.295-.388 16.36 16.36 0 0 0 8.052-4.416c6.42-6.403 6.42-16.82-.002-23.223zM16.15 36.962a10.17 10.17 0 0 1-7.223-2.984 10.135 10.135 0 0 1-.002-14.374 10.158 10.158 0 0 1 7.185-2.985l.04-.002a10.323 10.323 0 0 1 3.084.473c.963.3 1.873.746 2.709 1.321.39.27.765.566 1.121.894.105.098.213.196.314.3l.703.698 3.4 3.392a1.423 1.423 0 1 1-1.007 2.427c-.366 0-.732-.14-1.01-.417l-3.44-3.43-.715-.711c-.108-.108-.22-.207-.335-.309a7.382 7.382 0 0 0-4.823-1.792l-.21.004a7.34 7.34 0 0 0-4.998 2.147 7.292 7.292 0 0 0 0 10.351 7.332 7.332 0 0 0 5.208 2.152h1.301l1.202 1.16a16.04 16.04 0 0 0 1.948 1.686H16.15zm22.25-3.628a12.492 12.492 0 0 1-6.126 3.361c-.817.18-1.658.279-2.512.295l-.227.005a12.487 12.487 0 0 1-8.867-3.66l-.606-.607-1.428-1.42-3.832-3.821a1.417 1.417 0 0 1 0-2.013 1.431 1.431 0 0 1 2.018 0l5.85 5.834.016.014a9.53 9.53 0 0 0 1.788 1.406 9.63 9.63 0 0 0 5.061 1.423 9.783 9.783 0 0 0 3.79-.764 9.74 9.74 0 0 0 3.06-2.065c3.774-3.763 3.774-9.888 0-13.65a9.676 9.676 0 0 0-6.85-2.825 9.693 9.693 0 0 0-5.404 1.639 12.737 12.737 0 0 0-2.634-1.575 12.512 12.512 0 0 1 8.038-2.906c3.212 0 6.42 1.219 8.863 3.654 4.89 4.874 4.89 12.803.003 17.675z"/>
</svg>
