<svg xmlns="http://www.w3.org/2000/svg" width="48" height="48" viewBox="0 0 48 48">
    <g fill="none" fill-rule="evenodd">
        <path d="M0 0h48v48H0z"/>
        <path fill="#22A7F0" d="M47.216 30.215c.588.797.49 1.892-.294 2.489-.881.597-1.959.498-2.546-.299L40.26 27.03l-4.016 5.376c-.588.797-1.763.896-2.547.299-.784-.597-.98-1.692-.392-2.489l4.702-6.272-4.702-6.172c-.588-.797-.392-1.991.392-2.589.784-.597 1.96-.398 2.547.398l4.016 5.376 4.115-5.376c.587-.796 1.665-.995 2.546-.398.784.598.882 1.792.294 2.589l-4.604 6.172 4.604 6.272zm-21.453-.796c-3.036 0-5.485-2.39-5.485-5.476 0-2.987 2.449-5.475 5.485-5.475 3.037 0 5.486 2.488 5.486 5.475 0 3.086-2.449 5.476-5.486 5.476zm-16.163 0c-3.037 0-5.486-2.39-5.486-5.476 0-2.987 2.45-5.475 5.486-5.475 3.037 0 5.486 2.488 5.486 5.475 0 3.086-2.45 5.476-5.486 5.476zm16.163-14.535a9.126 9.126 0 0 0-8.032 4.778c-1.568-2.887-4.604-4.778-8.131-4.778-2.057 0-3.918.696-5.486 1.792V9.01c0-.996-.783-1.792-1.763-1.792C1.273 7.218.49 8.014.49 9.01v15.132c.098 4.978 4.114 8.96 9.11 8.96 3.527 0 6.563-1.99 8.13-4.878 1.568 2.887 4.605 4.878 8.033 4.878 5.094 0 9.208-4.082 9.208-9.159 0-4.978-4.114-9.06-9.208-9.06z"/>
    </g>
</svg>
