<?xml version="1.0" encoding="UTF-8"?>
<svg width="48px" height="48px" viewBox="0 0 48 48" version="1.1" xmlns="http://www.w3.org/2000/svg" xmlns:xlink="http://www.w3.org/1999/xlink">
    <g id="Symbols" stroke="none" stroke-width="1" fill="none" fill-rule="evenodd">
        <g id="jira-48" fill-rule="nonzero" fill="#1E7AF4">
            <g id="Jira" transform="translate(5.000000, 5.000000)">
                <path d="M36,0 L18,0 C18,2.24251593 18.432086,4.39318424 20.0177842,5.97888246 C21.6034824,7.56458068 23.7574841,8 26,8 L30,8 L30,12 C30.0029879,16.665568 33.334432,19.9970121 38,20 L38,2 C38,1 37,0 36,0 Z" id="Shape"></path>
                <path d="M27,9 L9,9 C9,11.2425159 9.43208598,13.3931842 11.0177842,14.9788825 C12.6034824,16.5645807 14.7574841,17 17,17 L21,17 L21,21 C21.0029879,25.665568 24.334432,28.9970121 29,29 L29,11 C29,10 28,9 27,9 Z" id="Shape-Copy"></path>
                <path d="M18,18 L0,18 C0,20.2425159 0.432085984,22.3931842 2.0177842,23.9788825 C3.60348242,25.5645807 5.75748407,26 8,26 L12,26 L12,30 C12.0029879,34.665568 15.334432,37.9970121 20,38 L20,20 C20,19 19,18 18,18 Z" id="Shape-Copy-2"></path>
            </g>
        </g>
    </g>
</svg>