<svg xmlns="http://www.w3.org/2000/svg" width="48" height="48" viewBox="0 0 48 48">
    <g fill="none" fill-rule="nonzero">
        <path fill="#000" d="M24 0a2 2 0 0 1 2 2v2a2 2 0 1 1-4 0V2a2 2 0 0 1 2-2z"/>
        <path fill="#2A79FF" d="M24 40c8.837 0 16-7.163 16-16S32.837 8 24 8 8 15.163 8 24s7.163 16 16 16zm0 4C12.954 44 4 35.046 4 24S12.954 4 24 4s20 8.954 20 20-8.954 20-20 20z"/>
        <path fill="#000" d="M25.036 20.135l4.914-4.913a2 2 0 1 1 2.828 2.828l-4.913 4.914A4.005 4.005 0 0 1 24 28a4 4 0 1 1 1.036-7.865z"/>
    </g>
</svg>