<?xml version="1.0" encoding="UTF-8"?>
<svg width="40px" height="40px" viewBox="0 0 40 40" version="1.1" xmlns="http://www.w3.org/2000/svg" xmlns:xlink="http://www.w3.org/1999/xlink">
    <g id="iconset" stroke="none" stroke-width="1" fill="none" fill-rule="evenodd" transform="translate(-608.000000, -604.000000)">
        <g id="Pinterest-48" transform="translate(604.000000, 600.000000)" fill="#BD081C">
            <path d="M23.999918,4 C12.954321,4 4,12.954321 4,23.999918 C4,32.472734 9.27163555,39.7161301 16.7114372,42.6302437 C16.5366723,41.0478513 16.3787938,38.6142591 16.7809496,36.8867758 C17.1442507,35.3260241 19.1260118,26.9455089 19.1260118,26.9455089 C19.1260118,26.9455089 18.5277783,25.7474025 18.5277783,23.9761461 C18.5277783,21.1951554 20.1396807,19.1189622 22.1466893,19.1189622 C23.8530238,19.1189622 24.6771728,20.4001885 24.6771728,21.9363485 C24.6771728,23.6521917 23.5846466,26.2177593 23.0208414,28.5952825 C22.5496649,30.5860606 24.0190995,32.2094391 25.9824989,32.2094391 C29.5371437,32.2094391 32.2696067,28.4613398 32.2696067,23.0508433 C32.2696067,18.2623522 28.8287395,14.9141136 23.9154866,14.9141136 C18.2249728,14.9141136 14.8846036,19.1824088 14.8846036,23.5936635 C14.8846036,25.3124577 15.5467754,27.1558497 16.3730557,28.1577146 C16.5365084,28.3557596 16.5604443,28.5293768 16.5119167,28.7313564 C16.3599402,29.3631986 16.0225424,30.7216427 15.9563088,30.9995287 C15.8690903,31.3656167 15.6664549,31.4431625 15.2874152,31.2670861 C12.7895567,30.1042277 11.2278214,26.4523639 11.2278214,23.5189049 C11.2278214,17.2099924 15.8117097,11.4161936 24.4425682,11.4161936 C31.3805357,11.4161936 36.7721786,16.3599402 36.7721786,22.9670676 C36.7721786,29.8599504 32.4261737,35.4071767 26.3939996,35.4071767 C24.3674816,35.4071767 22.4621186,34.3543251 21.8099473,33.110642 C21.8099473,33.110642 20.8070988,36.9292375 20.5639691,37.8648687 C20.1124659,39.6021887 18.8935385,41.7796996 18.0782425,43.1079779 C19.9495051,43.6873578 21.9381519,44 23.999918,44 C35.045679,44 44,35.045679 44,23.999918 C44,12.954321 35.045679,4 23.999918,4" id="Fill-4"></path>
        </g>
    </g>
</svg>